<?xml version="1.0" encoding="UTF-8"?>
<svg version="1.1" viewBox="0 0 2048 466" width="1024" height="233" xmlns="http://www.w3.org/2000/svg">
<path transform="translate(1653,97)" d="m0 0h39v116l6-4 44-44h49l-4 6-8 8-8 7-34 34 29 43 12 19 17 25v3h-46l-10-15-16-26-13-21-4 2-11 11-2 1-1 48h-39z" fill="#4181F3"/>
<path transform="translate(941,160)" d="m0 0h16l13 2 14 5 12 8 10 10 8 13 5 15 2 13v20h-110l5 15 7 9 9 6 11 3h16l10-3 8-6 7-8 1-2 7 1 26 13v3l-8 11-5 6-10 8-10 6-15 5-16 2h-9l-14-2-15-5-13-8-10-9-7-8-8-16-4-14-1-7v-17l3-15 5-13 7-11 9-10 8-7 10-6 14-5zm0 32-11 4-9 7-6 10-2 6h71l-3-10-7-9-10-6-7-2z" fill="#4281F3"/>
<path transform="translate(563,160)" d="m0 0h16l13 2 12 4 12 7 9 8 8 11 6 13 4 17v24h-110l6 16 9 10 12 6 6 1h15l10-3 9-6 8-10 6 1 22 11 5 3-5 9-12 13-13 9-12 5-12 3-19 1-15-2-14-5-11-6-10-8-8-9-8-14-5-15-2-14v-9l2-14 5-15 8-14 11-12 13-9 11-5 10-3zm0 32-11 4-10 9-5 8-1 6h70l-2-9-6-8-8-6-11-4z" fill="#4281F3"/>
<path transform="translate(1866,160)" d="m0 0h16l13 2 12 4 11 6 10 8 9 10 8 14 5 16 1 7v21l-3 14-6 15-10 14-10 9-14 8-15 5-15 2h-9l-14-2-15-5-12-7-10-9-8-9-8-16-4-13-1-7v-19l3-15 5-12 7-12 10-11 13-9 14-6 8-2zm1 36-11 4-8 6-7 8-4 10-2 14 2 13 4 9 6 8 9 7 13 4h10l10-3 10-6 7-8 5-11 1-4v-19l-3-10-6-9-9-8-10-4-4-1z" fill="#E74434"/>
<path transform="translate(1473,160)" d="m0 0h17l16 3 12 5 10 6 10 9 7 8 9 17 4 16v27l-4 15-8 16-8 10-10 9-15 8-13 4-15 2-18-1-15-4-14-7-10-8-7-7-9-14-5-13-2-9-1-10v-10l2-14 5-15 6-11 10-12 12-9 12-6 14-4zm2 36-12 4-9 7-7 10-4 13v15l4 13 8 11 9 6 8 3 5 1h9l13-4 8-6 7-8 4-8 2-10v-10l-2-11-5-10-6-7-10-6-10-3z" fill="#38A45E"/>
<path transform="translate(336,160)" d="m0 0h14l14 3 12 6 10 10 7 14 3 12 1 8v97h-39l-1-93-3-9-6-7-11-4h-12l-10 4-7 6-5 8-3 9-1 5-1 81h-39v-145h36v19l5-4 7-8 11-7 11-4z" fill="#E74434"/>
<path transform="translate(1189,165)" d="m0 0h119v32l-7 7-7 8-29 31-9 10-14 15-5 6-3 3h75v33h-123v-33l12-12 7-8 28-30 9-10 7-7 7-8 3-3-70-1-1-1v-31z" fill="#FAB80C"/>
<path transform="translate(662,165)" d="m0 0h119v33l-13 13-7 8-16 17-24 26-13 14 74 1v33h-123v-32l14-15 12-13 14-15 24-26 9-10-70-1z" fill="#38A45E"/>
<path transform="translate(1581,97)" d="m0 0h39v213h-39z" fill="#E74434"/>
<path transform="translate(811,97)" d="m0 0h39v213h-39z" fill="#E74434"/>
<path transform="translate(1340,165)" d="m0 0h39v145h-39z" fill="#4382F3"/>
<path transform="translate(431,165)" d="m0 0h39v145h-39z" fill="#FAB80C"/>
<path transform="translate(1029,339)" d="m0 0h147l1 1v34h-148z" fill="#E74434"/>
<path transform="translate(95,339)" d="m0 0h147l1 1v33l-1 1h-147z" fill="#4181F3"/>
<path transform="translate(1352,95)" d="m0 0h14l10 5 6 8 2 5v13l-5 10-8 6-5 2h-13l-10-5-6-7-3-9v-7l3-9 7-8z" fill="#4281F3"/>
<path transform="translate(443,95)" d="m0 0h15l10 6 6 9 1 3v13l-4 8-5 5-6 4-4 1h-12l-10-5-6-7-3-9v-7l3-9 7-8z" fill="#FAB80C"/>
</svg>
