<svg version="1.2" xmlns="http://www.w3.org/2000/svg" viewBox="0 0 1026 236" width="1026" height="236"><style>.a{fill:#34a85a}.b{fill:#4285f4}.c{fill:#4285f4;stroke:#4285f4}.d{fill:#ea4333;stroke:#ea4333}.e{fill:#ea4333}.f{fill:#fbbc05}.g{fill:#c8c8c8}</style><path class="a" d="m332.2 99.9v-15.7h60v15.4l-36.2 37.7h36.2v15.7h-61.5v-15.4l36.2-37.7z"/><path class="b" d="m685.5 73.1q-2.5 0-4.8-0.8-2.1-1.1-3.9-2.6-1.5-1.8-2.6-3.9-0.8-2.2-0.8-4.8 0-2.6 0.8-4.7 1.1-2.2 2.6-3.8 1.8-1.7 3.9-2.6 2.3-1 4.8-1 5 0 8.6 3.6 3.6 3.5 3.6 8.5 0 5.1-3.6 8.7-3.6 3.4-8.6 3.4zm9.5 80.9h-18.9v-70.6h18.9z"/><path class="b" d="m303.5 127.9l15.3 7.6q-4.7 8.4-12.9 13.6-8 5.1-19.6 5.1-7.8 0-14.6-2.6-6.6-2.8-11.5-7.7-4.9-4.9-7.7-11.5-2.6-6.7-2.6-14.7 0-7.5 2.6-14.1 2.7-6.7 7.5-11.6 4.7-5 11.2-8 6.6-2.9 14.4-2.9 8.3 0 14.7 2.8 6.5 2.6 10.8 7.6 4.4 4.7 6.6 11.3 2.2 6.6 2.2 14.3 0 1 0 1.7-0.1 0.8-0.1 1.5-0.1 0.7-0.1 1.6h-51.8q0.6 4.2 2.3 7.3 1.8 2.9 4.3 5 2.7 2 5.8 2.9 3.1 0.9 6.3 0.9 6.3 0 10.4-2.8 4.2-3 6.5-7.3zm-34.6-19.1h33.2q-0.1-1.8-1.2-4-1-2.3-3.1-4.2-2-2-5-3.3-3-1.2-7.2-1.2-5.9 0-10.4 3.3-4.5 3.4-6.3 9.4z"/><path class="b" d="m303.5 127.9l15.3 7.6q-4.7 8.4-12.9 13.6-8 5.1-19.6 5.1-7.8 0-14.6-2.6-6.6-2.8-11.5-7.7-4.9-4.9-7.7-11.5-2.6-6.7-2.6-14.7 0-7.5 2.6-14.1 2.7-6.7 7.5-11.6 4.7-5 11.2-8 6.6-2.9 14.4-2.9 8.3 0 14.7 2.8 6.5 2.6 10.8 7.6 4.4 4.7 6.6 11.3 2.2 6.6 2.2 14.3 0 1 0 1.7-0.1 0.8-0.1 1.5-0.1 0.7-0.1 1.6h-51.8q0.6 4.2 2.3 7.3 1.8 2.9 4.3 5 2.7 2 5.8 2.9 3.1 0.9 6.3 0.9 6.3 0 10.4-2.8 4.2-3 6.5-7.3zm-34.6-19.1h33.2q-0.1-1.8-1.2-4-1-2.3-3.1-4.2-2-2-5-3.3-3-1.2-7.2-1.2-5.9 0-10.4 3.3-4.5 3.4-6.3 9.4z"/><path class="b" d="m490.5 127.9l15.3 7.6q-4.7 8.4-12.9 13.6-8 5.1-19.6 5.1-7.8 0-14.6-2.6-6.6-2.8-11.5-7.7-4.9-4.9-7.7-11.5-2.6-6.7-2.6-14.7 0-7.5 2.6-14.1 2.7-6.7 7.5-11.6 4.7-5 11.2-8 6.6-2.9 14.4-2.9 8.3 0 14.7 2.8 6.5 2.6 10.8 7.6 4.4 4.7 6.6 11.3 2.2 6.6 2.2 14.3 0 1 0 1.7-0.1 0.8-0.1 1.5-0.1 0.7-0.1 1.6h-51.8q0.6 4.2 2.3 7.3 1.8 2.9 4.3 5 2.7 2 5.8 2.9 3.1 0.9 6.3 0.9 6.3 0 10.4-2.8 4.2-3 6.5-7.3zm-34.6-19.1h33.2q-0.1-1.8-1.2-4-1-2.3-3.1-4.2-2-2-5-3.3-3-1.2-7.2-1.2-5.9 0-10.4 3.3-4.5 3.4-6.3 9.4z"/><path class="c" d="m830 102.5v52.5h9 9v-11.9-11.9l4.2-3.6c2.3-2 4.6-3.6 5.2-3.6 0.6 0.1 5.4 7 10.6 15.5l9.5 15.5 10.8-0.2 10.7-0.3-14.7-22-14.6-22 13.9-13.2 13.9-13.3h-11.5-11.5l-12 12c-6.6 6.6-12.5 12-13.2 12-1 0-1.3-6.3-1.3-29v-29h-9-9z"/><path class="d" d="m794 102.5v52.5h9 9v-52.5-52.5h-9-9z"/><path class="d" d="m408 102.5v52.5h8.5 8.5v-52.5-52.5h-8.5-8.5z"/><path class="e" d="m151.1 84.3v9h1.1q3.2-5.2 8.7-8.1 5.5-3.1 12.5-3.1 6.4 0 11.3 2.1 4.9 2.1 8 6 3.2 3.8 4.8 9.3 1.7 5.3 1.7 11.9v41.6h-18.4v-39.4q0-7.4-3.4-10.9-3.2-3.7-9.5-3.7-3.8 0-6.7 1.7-2.8 1.6-4.9 4.4-2 2.6-3.1 6.4-1 3.7-1 7.9v33.6h-18.4v-68.7z"/><path class="c" d="m48 179v8h36.5 36.5v-8-8h-36.5-36.5z"/><path class="d" d="m517 179v8h36 36v-8-8h-36-36z"/><path class="f" d="m227.5 74.1q-2.5 0-4.8-0.8-2.1-1.1-3.9-2.6-1.5-1.8-2.6-3.9-0.8-2.2-0.8-4.8 0-2.6 0.8-4.7 1.1-2.2 2.6-3.8 1.8-1.7 3.9-2.6 2.3-1 4.8-1 5 0 8.6 3.6 3.6 3.5 3.6 8.5 0 5.1-3.6 8.7-3.6 3.4-8.6 3.4zm9.5 10.3v70.6h-18.9v-70.6z"/><path class="f" d="m596.2 100.9v-15.7h60v15.4l-36.2 37.7h36.2v15.7h-61.5v-15.4l36.2-37.7z"/><path class="a" d="m742.4 99.9q-7.5 0-11.4 5.4-4 5.3-4 15.5 0 10.1 4 15.5 3.9 5.4 11.4 5.4 7.4 0 11.3-5.4 3.9-5.4 3.9-15.5 0-10.2-3.9-15.5-3.9-5.4-11.3-5.4zm0-16.2q18.2 0 28.4 9.9 10.3 9.8 10.3 27.2 0 17.4-10.3 27.2-10.2 9.8-28.4 9.8-18.2 0-28.6-9.8-10.3-9.8-10.3-27.2 0-17.4 10.3-27.2 10.4-9.9 28.6-9.9z"/><path class="e" d="m940.4 99.9q-7.5 0-11.4 5.4-4 5.3-4 15.5 0 10.1 4 15.5 3.9 5.4 11.4 5.4 7.4 0 11.3-5.4 3.9-5.4 3.9-15.5 0-10.2-3.9-15.5-3.9-5.4-11.3-5.4zm0-16.2q18.2 0 28.4 9.9 10.3 9.8 10.3 27.2 0 17.4-10.3 27.2-10.2 9.8-28.4 9.8-18.2 0-28.6-9.8-10.3-9.8-10.3-27.2 0-17.4 10.3-27.2 10.4-9.9 28.6-9.9z"/><path class="g" d="m687.8 200.8q-7.7 0-12.9-5.2-5.1-5.2-5.1-12.9 0-7.8 5.1-12.9 5.2-5.2 12.9-5.2 7.8 0 12.7 5.6l-3.2 3.1q-3.7-4.5-9.5-4.5-5.8 0-9.6 3.9-3.9 3.8-3.9 10 0 6.1 3.9 9.9 3.8 3.9 9.6 3.9 6.1 0 10.5-5.1l3.3 3.2q-2.5 2.9-6.1 4.6-3.6 1.6-7.7 1.6zm40.4-10q0 4.5-3.4 7.3-3.3 2.7-8.2 2.7-4.3 0-7.6-2.5-3.3-2.6-4.5-6.9l4.2-1.8q0.5 1.6 1.2 2.8 0.8 1.3 1.8 2.2 1.1 0.9 2.3 1.4 1.3 0.5 2.7 0.5 3.1 0 5-1.5 1.9-1.6 1.9-4.2 0-2.2-1.6-3.8-1.5-1.5-5.6-2.9-4.1-1.5-5.2-2-5.5-2.8-5.5-8.3 0-3.8 3.1-6.5 3.1-2.7 7.6-2.7 3.9 0 6.8 2 2.9 2 3.9 5l-4.1 1.7q-0.6-1.9-2.4-3.2-1.7-1.3-4.1-1.3-2.7 0-4.4 1.5-1.8 1.3-1.8 3.5 0 1.8 1.4 3.1 1.5 1.3 6.7 3.1 5.3 1.8 7.5 4.4 2.3 2.6 2.3 6.4zm26.4-1.2q0 4.8-3.3 8-3.3 3.2-8.1 3.2-3.9 0-7-2.4-3.2-2.5-4.2-6.6l4-1.6q0.7 2.9 2.6 4.6 1.9 1.7 4.5 1.7 3.1 0 5-1.9 2-1.9 2-4.9 0-3.1-2-5-1.9-1.9-5-1.9-3.5 0-5.5 2.8l-4.5-1.9 2.1-16.8h17.4v4.2h-13.7l-1.2 9.5 0.2 0.1q2.5-2 6-2 4.5 0 7.6 3.1 3.1 3.2 3.1 7.8zm4.5-6.2q0-7.5 3.7-12.4 3.7-4.9 9.6-4.9 5.8 0 9.6 4.9 3.7 4.9 3.7 12.4 0 7.5-3.7 12.5-3.8 4.9-9.6 4.9-5.9 0-9.6-4.9-3.7-5-3.7-12.5zm22 0q0-5.7-2.4-9.4-2.3-3.6-6.3-3.6-4 0-6.4 3.6-2.4 3.7-2.4 9.4 0 5.8 2.4 9.5 2.4 3.6 6.4 3.6 4 0 6.3-3.7 2.4-3.7 2.4-9.4zm27.6 10q0 3.1-2.7 5.2-2.7 2.2-6.8 2.2-3.6 0-6.3-1.9-2.7-1.9-3.9-4.9l4-1.7q0.8 2.1 2.5 3.3 1.7 1.2 3.7 1.2 2.1 0 3.5-0.9 1.4-0.9 1.4-2.2 0-2.3-3.4-3.3l-4.1-1.1q-6.9-1.7-6.9-6.6 0-3.3 2.6-5.2 2.6-2 6.8-2 3.1 0 5.6 1.5 2.6 1.5 3.6 4l-4 1.7q-0.6-1.5-2.2-2.4-1.5-0.8-3.4-0.8-1.7 0-3.1 0.8-1.4 0.9-1.4 2.2 0 2 3.8 2.9l3.6 0.9q7.1 1.7 7.1 7.1zm25.7 8.9v3.7h-1.1q-3.7 0-5.9-2.1-2.1-2.2-2.1-5.9v-7.8q0-4.5-3.6-4.5v-3.7q3.6 0 3.6-4.5v-7.9q0-3.6 2.1-5.8 2.2-2.1 5.9-2.1h1.1v3.6h-0.8q-4.3 0-4.3 4.9v8.1q0 4.3-3.3 5.4v0.2q3.2 1.1 3.3 5.4v8.1q0 4.9 4.3 4.9zm22.4-8.9q0 3.1-2.7 5.2-2.7 2.2-6.8 2.2-3.6 0-6.3-1.9-2.7-1.9-3.9-4.9l4-1.7q0.9 2.1 2.5 3.3 1.7 1.2 3.7 1.2 2.1 0 3.5-0.9 1.5-0.9 1.5-2.2 0-2.3-3.5-3.3l-4.1-1.1q-6.9-1.7-6.9-6.6 0-3.3 2.6-5.2 2.7-2 6.8-2 3.2 0 5.7 1.5 2.5 1.5 3.6 4l-4 1.7q-0.7-1.5-2.2-2.4-1.5-0.8-3.4-0.8-1.8 0-3.2 0.8-1.3 0.9-1.3 2.2 0 2 3.8 2.9l3.6 0.9q7 1.7 7 7.1zm14.8 7.4q-5.2 0-8.6-3.6-3.4-3.6-3.4-9.1 0-5.4 3.3-9 3.3-3.6 8.4-3.6 5.3 0 8.4 3.4 3.1 3.4 3.1 9.6v0.5h-18.6q0.1 3.4 2.3 5.6 2.2 2.1 5.3 2.1 4.3 0 6.7-4.3l4 2q-1.6 3-4.5 4.7-2.8 1.7-6.4 1.7zm-7.1-15.5h13.6q-0.2-2.5-2-4.1-1.8-1.6-4.9-1.6-2.5 0-4.3 1.5-1.8 1.6-2.4 4.2zm25.9 7.4q0 1.8 1.4 2.9 1.5 1.2 3.5 1.2 2.8 0 5-2.1 2.2-2.1 2.2-4.9-2-1.6-5.8-1.6-2.7 0-4.5 1.3-1.8 1.3-1.8 3.2zm5.8-17.2q4.9 0 7.8 2.7 2.8 2.6 2.8 7.2v14.6h-4.3v-3.3h-0.1q-2.8 4.1-7.4 4.1-3.9 0-6.6-2.3-2.6-2.4-2.6-5.9 0-3.6 2.8-5.8 2.8-2.2 7.4-2.2 4 0 6.5 1.5v-1.1q0-2.3-1.8-3.9-1.8-1.6-4.3-1.6-3.7 0-5.9 3.1l-3.9-2.5q3.2-4.6 9.6-4.6zm20.1 11.4v13.1h-4.5v-23.7h4.3v3.8h0.2q0.7-1.8 2.8-3.1 2.1-1.4 4.1-1.4 2 0 3.3 0.6l-1.3 4.3q-0.9-0.4-2.7-0.4-2.5 0-4.4 2.1-1.8 2-1.8 4.7zm22.5 13.9q-5.3 0-8.8-3.6-3.4-3.7-3.4-9.1 0-5.4 3.4-9 3.5-3.6 8.8-3.6 3.6 0 6.4 1.8 2.7 1.8 4 5l-4 1.7q-1.9-4.4-6.7-4.4-3 0-5.3 2.4-2.1 2.5-2.1 6.1 0 3.7 2.1 6.1 2.3 2.5 5.3 2.5 4.9 0 6.9-4.4l4 1.6q-1.3 3.2-4.2 5.1-2.7 1.8-6.4 1.8zm14.4-0.8v-34.7h4.5v11l-0.2 3.3h0.2q1-1.8 3.1-2.9 2.1-1.2 4.4-1.2 4.4 0 6.7 2.5 2.4 2.5 2.4 7.1v14.9h-4.5v-14q0-6.4-5.7-6.4-2.7 0-4.6 2.2-1.8 2.3-1.8 5.3v12.9zm26.1 6h-1v-3.7h0.7q4.3 0 4.3-4.9v-8.1q0.1-4.3 3.3-5.4v-0.2q-3.2-1.1-3.3-5.4v-8.1q0-4.9-4.3-4.9h-0.7v-3.6h1q3.7 0 5.9 2.1 2.2 2.2 2.2 5.8v7.9q0 4.5 3.6 4.5v3.7q-3.6 0-3.6 4.5v7.8q0 3.7-2.2 5.9-2.2 2.1-5.9 2.1z"/></svg>