<svg id="5cR6v4oL3K" viewBox="0 0 350 226.64114893298986" height="226.64114893298986" width="350" style="width: 350px; height: 226.641px; position: absolute; top: 50%; left: 50%; transform: translate(-50%, -50%) scale(0.598286); z-index: 0; cursor: pointer; overflow: visible;"><defs id="SvgjsDefs1361"></defs><g id="SvgjsG1362" featurekey="CGau9U-0" transform="matrix(1.596198320388794,0,0,1.596198320388794,95.68852449473613,-10.375288777539511)" fill="#111111"><metadata xmlns="http://www.w3.org/2000/svg"><sfw xmlns="http://ns.adobe.com/SaveForWeb/1.0/"><slices><slicesourcebounds y="6.5" x="10.844" width="78.312" height="87" bottomleftorigin="true"></slicesourcebounds><optimizationsettings><targetsettings targetsettingsid="0" fileformat="GIFFormat"><gifformat transparency="true" lossy="0" mattecolor="" interlaced="false" nomattecolor="false" webshiftpercent="0" includecaption="false" reductionalgorithm="selective" ditheralgorithm="diffusion" ditherpercent="100" numcolors="256" rollovermasterpalette="false" autoreduce="false"><colortable isexact="false"></colortable><lockedcolors><colorshiftentries></colorshiftentries></lockedcolors></gifformat></targetsettings></optimizationsettings></slices></sfw></metadata><g xmlns="http://www.w3.org/2000/svg"><path d="M50,38.5c-6.341,0-11.5,5.159-11.5,11.5c0,6.341,5.159,11.5,11.5,11.5c6.341,0,11.5-5.159,11.5-11.5   C61.5,43.659,56.341,38.5,50,38.5z M50,58.5c-4.687,0-8.5-3.813-8.5-8.5c0-4.687,3.813-8.5,8.5-8.5c4.687,0,8.5,3.813,8.5,8.5   C58.5,54.687,54.687,58.5,50,58.5z"></path><path d="M83.919,52.207c-0.513-0.738-1.066-1.474-1.641-2.207c0.574-0.734,1.128-1.469,1.641-2.208   c5.296-7.621,6.629-14.562,3.753-19.542c-2.481-4.299-7.966-6.666-15.441-6.666c-1.92,0-3.939,0.158-6.027,0.452   C62.381,12.488,56.591,6.5,50,6.5s-12.381,5.988-16.203,15.535c-2.088-0.294-4.107-0.452-6.026-0.452   c-7.476,0-12.96,2.368-15.441,6.666c-2.876,4.981-1.543,11.921,3.753,19.542c0.513,0.738,1.066,1.474,1.641,2.208   c-0.575,0.734-1.128,1.47-1.641,2.208c-5.296,7.621-6.63,14.562-3.754,19.543c2.482,4.298,7.965,6.665,15.441,6.665   c0,0,0.001,0,0.001,0c1.919,0,3.938-0.158,6.026-0.452C37.619,87.512,43.409,93.5,50,93.5s12.381-5.988,16.203-15.537   c2.089,0.294,4.108,0.452,6.028,0.452c7.476,0,12.959-2.367,15.441-6.665C90.549,66.769,89.216,59.828,83.919,52.207z    M72.23,23.584c6.731,0,11.6,2.012,13.709,5.666c2.467,4.272,1.166,10.452-3.663,17.401c-0.408,0.587-0.844,1.172-1.293,1.757   c-2.964-3.499-6.595-6.907-10.725-10.081c-0.685-5.28-1.823-10.136-3.333-14.377C68.762,23.709,70.537,23.584,72.23,23.584z    M59.501,66.455c-3.141,1.813-6.33,3.396-9.499,4.745c-3.17-1.349-6.36-2.933-9.502-4.746c-3.145-1.815-6.115-3.782-8.869-5.854   C31.221,57.215,31,53.663,31,50s0.221-7.215,0.631-10.601c2.754-2.071,5.726-4.039,8.87-5.854c3.141-1.813,6.33-3.397,9.5-4.746   c3.169,1.349,6.358,2.932,9.499,4.745c3.145,1.815,6.115,3.782,8.869,5.853C68.779,42.784,69,46.336,69,50   c0,3.664-0.221,7.216-0.631,10.603C65.615,62.673,62.645,64.64,59.501,66.455z M67.983,63.365   c-0.707,4.526-1.762,8.701-3.097,12.375c-3.918-0.68-8.075-1.863-12.303-3.49c2.649-1.199,5.301-2.553,7.917-4.062   C63.119,66.676,65.62,65.059,67.983,63.365z M47.42,72.25c-4.229,1.628-8.388,2.812-12.307,3.491   c-1.335-3.675-2.39-7.851-3.097-12.378c2.364,1.694,4.865,3.312,7.483,4.823C42.117,69.697,44.769,71.051,47.42,72.25z    M29.419,58.874c-3.496-2.827-6.576-5.818-9.125-8.874c2.549-3.056,5.629-6.047,9.125-8.874C29.144,43.983,29,46.95,29,50   S29.144,56.017,29.419,58.874z M32.017,36.637c0.707-4.528,1.762-8.704,3.097-12.378c3.919,0.679,8.077,1.863,12.306,3.492   c-2.65,1.199-5.302,2.553-7.918,4.063C36.882,33.325,34.38,34.942,32.017,36.637z M52.583,27.75   c4.228-1.628,8.386-2.812,12.304-3.491c1.335,3.674,2.39,7.85,3.097,12.376c-2.364-1.694-4.865-3.312-7.483-4.823   C57.885,30.302,55.232,28.949,52.583,27.75z M70.58,41.125c3.498,2.828,6.578,5.819,9.127,8.875   c-2.549,3.056-5.63,6.048-9.127,8.876C70.855,56.018,71,53.05,71,50C71,46.95,70.855,43.982,70.58,41.125z M50,8.5   c5.621,0,10.678,5.364,14.159,13.866c-4.514,0.816-9.31,2.258-14.158,4.262c-4.849-2.004-9.646-3.446-14.16-4.263   C39.323,13.863,44.379,8.5,50,8.5z M17.725,46.65c-4.83-6.949-6.13-13.129-3.664-17.401c2.109-3.654,6.978-5.666,13.709-5.666   c1.693,0,3.468,0.125,5.304,0.365c-1.51,4.242-2.648,9.098-3.333,14.379c-4.129,3.173-7.759,6.581-10.723,10.08   C18.569,47.823,18.133,47.238,17.725,46.65z M27.77,76.416c-6.731,0-11.6-2.013-13.709-5.665   c-2.467-4.272-1.166-10.452,3.664-17.401c0.408-0.588,0.845-1.174,1.294-1.758c2.964,3.499,6.594,6.906,10.723,10.08   c0.685,5.281,1.823,10.137,3.333,14.379C31.238,76.291,29.463,76.416,27.77,76.416z M50,91.5c-5.621,0-10.678-5.363-14.159-13.866   c4.514-0.816,9.311-2.258,14.161-4.262c4.849,2.003,9.645,3.444,14.158,4.261C60.678,86.136,55.621,91.5,50,91.5z M85.94,70.75   c-2.109,3.653-6.978,5.665-13.709,5.665c-1.694,0-3.469-0.125-5.305-0.365c1.509-4.241,2.647-9.097,3.332-14.376   c4.13-3.175,7.76-6.582,10.725-10.082c0.449,0.584,0.885,1.17,1.293,1.757C87.106,60.298,88.407,66.478,85.94,70.75z"></path></g></g><g id="SvgjsG1363" featurekey="zSuAwM-0" transform="matrix(3.0973451137542725,0,0,3.0973451137542725,-2.4778761431179217,139.85840318055278)" fill="#111111"><path d="M0.8 20.4 l10.24 0 l0 0.46 l-10.24 0 l0 -0.46 z M20.64 18.88 c0 0.5 0.54 0.66 1.14 0.74 l0 0.38 c-1.2 -0.06 -2.44 -0.06 -3.66 0 l0 -0.38 c0.62 -0.1 1.14 -0.24 1.14 -0.74 l0 -5.72 c0 -1.68 -0.4 -2.76 -1.54 -2.76 c-1.6 0 -2.78 1.48 -3.02 1.8 l0 6.68 c0 0.5 0.54 0.64 1.14 0.74 l0 0.38 c-1.22 -0.06 -2.44 -0.06 -3.66 0 l0 -0.38 c0.62 -0.08 1.12 -0.24 1.12 -0.74 l0 -7.26 c0 -0.62 -0.36 -0.82 -1.16 -0.74 l0 -0.38 c1.3 -0.18 1.88 -0.7 2.22 -0.7 c0.2 0 0.36 0.12 0.34 0.34 l-0.18 1.76 c0.34 -0.52 1.66 -2.1 3.46 -2.1 c1.7 0 2.66 0.7 2.66 3.4 l0 5.68 z M24.18 7.800000000000001 c-0.42 0 -0.8 -0.34 -0.8 -0.78 c0 -0.4 0.38 -0.76 0.8 -0.76 c0.4 0 0.8 0.36 0.8 0.76 c0 0.44 -0.4 0.78 -0.8 0.78 z M25.04 18.88 c0 0.5 0.54 0.66 1.14 0.74 l0 0.38 c-1.24 -0.06 -2.44 -0.06 -3.68 0 l0 -0.38 c0.64 -0.08 1.14 -0.24 1.14 -0.74 l0 -7.38 c0 -0.62 -0.36 -0.82 -1.16 -0.8 l0 -0.38 c1.32 -0.16 1.86 -0.54 2.18 -0.54 c0.28 0 0.5 0.08 0.5 0.44 c0 0.38 -0.12 1.06 -0.12 2.28 l0 6.38 z M34.76 17.92 c0.08 0 0.18 0.08 0.14 0.22 c-0.36 1.06 -1.44 2.06 -3.22 2.06 c-2.54 0 -4.5 -1.82 -4.5 -5.16 c0 -3.26 1.98 -5.22 4.32 -5.22 c1.9 0 3.82 1.3 3.82 4.22 c0 0.56 -0.2 0.9 -0.76 0.9 l-5.7 0 c0 3.2 1.36 4.8 3 4.8 c0.96 0 1.74 -0.44 2.26 -1.52 c0.08 -0.16 0.14 -0.3 0.32 -0.3 l0.32 0 z M33.879999999999995 14.54 c0 -2.68 -0.72 -4.3 -2.36 -4.3 s-2.64 1.64 -2.66 4.3 l5.02 0 z M44.06 17.32 l-0.64 2.68 l-6.86 0 c-0.1 0 -0.32 -0.24 -0.22 -0.44 l5.86 -9.16 l-3.48 -0.02 c-0.88 0 -1.02 0.32 -1.9 2.14 l-0.28 0 l0.74 -2.76 l0.22 0 c0.42 0.14 0.64 0.22 1.56 0.22 c1.22 0 2.86 0 4.94 -0.04 l-6.16 9.68 l3.78 0.02 c1.12 0.02 1.28 -0.4 2.14 -2.32 l0.3 0 z M47.06 18.7 c0 0.66 0.36 0.86 1.14 0.74 l0 0.36 c-1.38 0.32 -1.72 0.42 -2.22 0.42 c-0.2 0 -0.32 -0.12 -0.32 -0.36 l0 -11.86 c0 -0.62 -0.36 -0.82 -1.16 -0.74 l0 -0.38 c1.3 -0.18 1.88 -0.7 2.24 -0.7 c0.18 0 0.32 0.1 0.32 0.38 l0 12.14 z M56.580000000000005 17.92 c0.08 0 0.18 0.08 0.14 0.22 c-0.36 1.06 -1.44 2.06 -3.22 2.06 c-2.54 0 -4.5 -1.82 -4.5 -5.16 c0 -3.26 1.98 -5.22 4.32 -5.22 c1.9 0 3.82 1.3 3.82 4.22 c0 0.56 -0.2 0.9 -0.76 0.9 l-5.7 0 c0 3.2 1.36 4.8 3 4.8 c0.96 0 1.74 -0.44 2.26 -1.52 c0.08 -0.16 0.14 -0.3 0.32 -0.3 l0.32 0 z M55.7 14.54 c0 -2.68 -0.72 -4.3 -2.36 -4.3 s-2.64 1.64 -2.66 4.3 l5.02 0 z M58.540000000000006 20.4 l10.24 0 l0 0.46 l-10.24 0 l0 -0.46 z M77.72000000000001 17.32 l-0.64 2.68 l-6.86 0 c-0.1 0 -0.32 -0.24 -0.22 -0.44 l5.86 -9.16 l-3.48 -0.02 c-0.88 0 -1.02 0.32 -1.9 2.14 l-0.28 0 l0.74 -2.76 l0.22 0 c0.42 0.14 0.64 0.22 1.56 0.22 c1.22 0 2.86 0 4.94 -0.04 l-6.16 9.68 l3.78 0.02 c1.12 0.02 1.28 -0.4 2.14 -2.32 l0.3 0 z M80.16000000000001 7.800000000000001 c-0.42 0 -0.8 -0.34 -0.8 -0.78 c0 -0.4 0.38 -0.76 0.8 -0.76 c0.4 0 0.8 0.36 0.8 0.76 c0 0.44 -0.4 0.78 -0.8 0.78 z M81.02000000000001 18.88 c0 0.5 0.54 0.66 1.14 0.74 l0 0.38 c-1.24 -0.06 -2.44 -0.06 -3.68 0 l0 -0.38 c0.64 -0.08 1.14 -0.24 1.14 -0.74 l0 -7.38 c0 -0.62 -0.36 -0.82 -1.16 -0.8 l0 -0.38 c1.32 -0.16 1.86 -0.54 2.18 -0.54 c0.28 0 0.5 0.08 0.5 0.44 c0 0.38 -0.12 1.06 -0.12 2.28 l0 6.38 z M87.40000000000002 9.82 c2.36 0 4.34 1.98 4.34 5.08 c0 3.26 -1.98 5.3 -4.24 5.3 c-2.36 0 -4.34 -2.04 -4.34 -5.14 c0 -3.26 1.98 -5.24 4.24 -5.24 z M90.14000000000001 15.26 c0 -2.9 -1.18 -5.02 -3.04 -5.02 c-1.46 0 -2.38 1.26 -2.38 4.42 c0 2.96 1.18 5.08 3.04 5.08 c1.44 0 2.38 -1.28 2.38 -4.48 z M94.80000000000001 18.7 c0 0.66 0.36 0.86 1.14 0.74 l0 0.36 c-1.38 0.32 -1.72 0.42 -2.22 0.42 c-0.2 0 -0.32 -0.12 -0.32 -0.36 l0 -11.86 c0 -0.62 -0.36 -0.82 -1.16 -0.74 l0 -0.38 c1.3 -0.18 1.88 -0.7 2.24 -0.7 c0.18 0 0.32 0.1 0.32 0.38 l0 12.14 z M103.22000000000001 18.36 c0.68 0.88 1.68 1.46 2.2 1.5 l-0.48 0.38 c-1.22 0 -2.4 -0.42 -3.38 -1.66 l-2.56 -3.32 l0 3.62 c0 0.5 0.54 0.64 1.14 0.74 l0 0.38 c-1.22 -0.06 -2.46 -0.04 -3.68 0 l0 -0.38 c0.64 -0.08 1.14 -0.24 1.14 -0.74 l0 -10.88 c0 -0.62 -0.36 -0.82 -1.16 -0.74 l0 -0.38 c1.3 -0.18 1.88 -0.7 2.24 -0.7 c0.18 0 0.32 0.1 0.32 0.38 l0 8.02 c1.62 -1.38 2.54 -2.26 3.64 -3.66 c0.2 -0.26 0.18 -0.5 -0.5 -0.58 l0 -0.36 c0.92 0.06 1.86 0.06 2.78 0 l0 0.36 c-0.68 0.08 -1 0.06 -1.66 0.74 l-3.24 3.24 z M109.46000000000002 9.82 c2.36 0 4.34 1.98 4.34 5.08 c0 3.26 -1.98 5.3 -4.24 5.3 c-2.36 0 -4.34 -2.04 -4.34 -5.14 c0 -3.26 1.98 -5.24 4.24 -5.24 z M112.20000000000002 15.26 c0 -2.9 -1.18 -5.02 -3.04 -5.02 c-1.46 0 -2.38 1.26 -2.38 4.42 c0 2.96 1.18 5.08 3.04 5.08 c1.44 0 2.38 -1.28 2.38 -4.48 z"></path></g><g id="SvgjsG1364" featurekey="fF8Cqn-0" transform="matrix(0.9106550812721252,0,0,0.9106550812721252,139.3054402767228,208.24283003707416)" fill="#111111"><path d="M12.661 17.729 c0.11864 0.08458 0.084746 0.22017 -0.067797 0.37271 c-1.2544 1.2542 -2.8814 2.0168 -4.8983 2.0168 c-3.8136 0 -6.9322 -3.0168 -6.9322 -6.8812 c0 -3.8475 3.1186 -6.9153 6.9322 -6.9153 c1.9322 0 3.661 0.74576 4.9322 2.0169 c0.15254 0.15254 0.16949 0.27119 0.067797 0.35593 l-0.71186 0.59322 c-0.11864 0.10169 -0.22034 0.10169 -0.33898 -0.016949 c-0.71186 -0.74559 -2.1186 -1.6608 -3.8475 -1.6608 c-3.678 0 -5.7119 2.9831 -5.7119 5.6271 c0 2.678 2.0339 5.5932 5.7119 5.5932 c1.7288 0 3.0508 -0.88136 3.7966 -1.6271 c0.13559 -0.13559 0.23729 -0.16949 0.35593 -0.067797 z M25.2610193220339 17.729 l0.47441 -0.55932 c0.15238 -0.15254 0.30492 -0.13559 0.44051 -0.033898 c0.32203 0.27119 1.6441 1.7119 3.5254 1.7119 c2.2373 0 3.2203 -1.2203 3.2203 -2.4237 c0 -1.7288 -1.9663 -2.1864 -3.7459 -2.8305 c-2.0169 -0.76271 -3.7458 -1.678 -3.7458 -3.7119 c0 -1.6949 1.2373 -3.5593 4.2712 -3.5593 c2.0847 0 3.5932 1.2542 4 1.6102 c0.13559 0.11864 0.18644 0.27119 0.084912 0.40678 l-0.44068 0.57627 c-0.10169 0.13559 -0.23729 0.16949 -0.38983 0.067797 c-0.33898 -0.25424 -1.5592 -1.3898 -3.2371 -1.3898 c-1.8985 0 -2.9663 1 -2.9663 2.288 c0 1.4915 1.5086 2.0169 3.4917 2.7288 c1.8136 0.67797 4 1.5932 4 3.8305 c0 1.9661 -1.8303 3.6608 -4.5253 3.6608 c-2.4746 0 -4 -1.61 -4.3898 -1.9998 c-0.11864 -0.11864 -0.22034 -0.22034 -0.067797 -0.37271 z M48.50486610169491 12.9832 c0.91525 -0.69492 1.7798 -0.94898 2.7629 -0.94898 c2.2542 0 3.8134 2 3.8134 4.1356 c0 2.2034 -1.8303 3.9997 -4.1185 3.9997 c-1.6441 0 -3.2373 -0.81339 -4.2542 -2.271 c-0.084746 -0.10169 -0.084746 -0.16949 0 -0.27136 l0.62712 -0.64407 c0.10169 -0.10169 0.18644 -0.084746 0.27119 0.016784 c0.71186 1.1019 1.9492 1.8815 3.3559 1.8815 c1.8305 0 2.7288 -1.4236 2.7288 -2.7458 c0 -1.5593 -1.2203 -2.8305 -2.661 -2.8305 c-0.98305 0 -1.7288 0.35593 -2.5254 1.0678 l-1.1017 -0.22034 c-0.13559 -0.033898 -0.23729 -0.11864 -0.23729 -0.25424 l0 -6.7288 c0 -0.13559 0.084746 -0.22034 0.22017 -0.22017 c1.1695 0.050847 2.322 0.067797 3.4407 0.067797 c1.1017 0 2.2373 -0.016949 3.339 -0.067797 c0.15254 0 0.22034 0.067797 0.22034 0.22034 l0 0.81356 c0 0.15254 -0.084746 0.23729 -0.22034 0.23729 c-1.1017 0.067797 -2.1695 0.084746 -3.1186 0.084746 c-0.9661 0 -1.8136 -0.016949 -2.5424 -0.067797 l0 4.7458 z  M72.57965423728812 20.20339 c-3.5763 0 -5.0169 -3.0337 -5.0169 -6.6608 c0 -3.6778 1.4407 -6.7625 5.0169 -6.7625 c3.5932 0 5.0508 3.0847 5.0508 6.7625 c0 3.6271 -1.4576 6.6608 -5.0508 6.6608 z M72.61355423728813 18.915399999999998 c2.7966 0 3.6949 -2.5085 3.6949 -5.3729 c0 -2.9153 -0.89831 -5.4746 -3.6949 -5.4746 c-2.8305 0 -3.7288 2.5593 -3.7288 5.4746 c0 2.8644 0.89831 5.3729 3.7288 5.3729 z"></path></g></svg>